<svg width="64" height="64" viewBox="0 0 64 64" fill="none" xmlns="http://www.w3.org/2000/svg">
<path d="M11 36.2329V18.2987C11 16.8504 12.1107 15.6776 13.4808 15.6776H26.5833C27.1874 15.6776 27.7591 15.9449 28.1388 16.4048L29.06 17.5204L27.7185 18.1098L26.8347 19.2576L54 19.5637V36.2329H11Z" fill="#FFD600"/>
<path d="M18.9873 18.5169L16.2435 15.7498C15.7674 15.2697 15.1218 15 14.4485 15H14C11.7909 15 10 16.7529 10 18.9153V43.0847C10 45.2471 11.7909 47 14 47H50C52.2091 47 54 45.2471 54 43.0847V18.9153C54 16.7529 52.2091 15 50 15H29.1562C28.539 15 27.9471 15.2472 27.5108 15.6873L26.423 16.7843C26.115 17.0949 26.115 17.5984 26.423 17.909C26.9198 18.41 26.5679 19.2667 25.8654 19.2667H20.7822C20.109 19.2667 19.4633 18.997 18.9873 18.5169Z" fill="#4F4F4F"/>
</svg>
